<svg width="122" height="27" viewBox="0 0 122 27" fill="none" xmlns="http://www.w3.org/2000/svg">
<path d="M18.5625 9.29688C19.4766 9.4375 19.8281 10.5625 19.1602 11.2305L15.4688 14.8516L16.3477 19.9492C16.4883 20.8633 15.5039 21.5664 14.6953 21.1445L10.125 18.7188L5.51953 21.1445C4.71094 21.5664 3.72656 20.8633 3.86719 19.9492L4.74609 14.8516L1.05469 11.2305C0.386719 10.5625 0.738281 9.4375 1.65234 9.29688L6.82031 8.55859L9.10547 3.88281C9.52734 3.03906 10.7227 3.07422 11.1094 3.88281L13.4297 8.55859L18.5625 9.29688ZM13.6406 14.2539L17.1914 10.8086L12.3047 10.1055L10.125 5.67578L7.91016 10.1055L3.02344 10.8086L6.57422 14.2539L5.73047 19.1055L10.125 16.8203L14.4844 19.1055L13.6406 14.2539Z" fill="#EB662B"/>
<path d="M43.8125 9.29688C44.7266 9.4375 45.0781 10.5625 44.4102 11.2305L40.7188 14.8516L41.5977 19.9492C41.7383 20.8633 40.7539 21.5664 39.9453 21.1445L35.375 18.7188L30.7695 21.1445C29.9609 21.5664 28.9766 20.8633 29.1172 19.9492L29.9961 14.8516L26.3047 11.2305C25.6367 10.5625 25.9883 9.4375 26.9023 9.29688L32.0703 8.55859L34.3555 3.88281C34.7773 3.03906 35.9727 3.07422 36.3594 3.88281L38.6797 8.55859L43.8125 9.29688ZM38.8906 14.2539L42.4414 10.8086L37.5547 10.1055L35.375 5.67578L33.1602 10.1055L28.2734 10.8086L31.8242 14.2539L30.9805 19.1055L35.375 16.8203L39.7344 19.1055L38.8906 14.2539Z" fill="#EB662B"/>
<path d="M69.0625 9.29688C69.9766 9.4375 70.3281 10.5625 69.6602 11.2305L65.9688 14.8516L66.8477 19.9492C66.9883 20.8633 66.0039 21.5664 65.1953 21.1445L60.625 18.7188L56.0195 21.1445C55.2109 21.5664 54.2266 20.8633 54.3672 19.9492L55.2461 14.8516L51.5547 11.2305C50.8867 10.5625 51.2383 9.4375 52.1523 9.29688L57.3203 8.55859L59.6055 3.88281C60.0273 3.03906 61.2227 3.07422 61.6094 3.88281L63.9297 8.55859L69.0625 9.29688ZM64.1406 14.2539L67.6914 10.8086L62.8047 10.1055L60.625 5.67578L58.4102 10.1055L53.5234 10.8086L57.0742 14.2539L56.2305 19.1055L60.625 16.8203L64.9844 19.1055L64.1406 14.2539Z" fill="#EB662B"/>
<path d="M94.3125 9.29688C95.2266 9.4375 95.5781 10.5625 94.9102 11.2305L91.2188 14.8516L92.0977 19.9492C92.2383 20.8633 91.2539 21.5664 90.4453 21.1445L85.875 18.7188L81.2695 21.1445C80.4609 21.5664 79.4766 20.8633 79.6172 19.9492L80.4961 14.8516L76.8047 11.2305C76.1367 10.5625 76.4883 9.4375 77.4023 9.29688L82.5703 8.55859L84.8555 3.88281C85.2773 3.03906 86.4727 3.07422 86.8594 3.88281L89.1797 8.55859L94.3125 9.29688ZM89.3906 14.2539L92.9414 10.8086L88.0547 10.1055L85.875 5.67578L83.6602 10.1055L78.7734 10.8086L82.3242 14.2539L81.4805 19.1055L85.875 16.8203L90.2344 19.1055L89.3906 14.2539Z" fill="#EB662B"/>
<path d="M119.562 9.29688C120.477 9.4375 120.828 10.5625 120.16 11.2305L116.469 14.8516L117.348 19.9492C117.488 20.8633 116.504 21.5664 115.695 21.1445L111.125 18.7188L106.52 21.1445C105.711 21.5664 104.727 20.8633 104.867 19.9492L105.746 14.8516L102.055 11.2305C101.387 10.5625 101.738 9.4375 102.652 9.29688L107.82 8.55859L110.105 3.88281C110.527 3.03906 111.723 3.07422 112.109 3.88281L114.43 8.55859L119.562 9.29688ZM114.641 14.2539L118.191 10.8086L113.305 10.1055L111.125 5.67578L108.91 10.1055L104.023 10.8086L107.574 14.2539L106.73 19.1055L111.125 16.8203L115.484 19.1055L114.641 14.2539Z" fill="#EB662B"/>
</svg>
