<svg width="21" height="20" viewBox="0 0 21 20" fill="none" xmlns="http://www.w3.org/2000/svg">
<path d="M18.8125 7.02686C19.7266 7.16748 20.0781 8.29248 19.4102 8.96045L15.7188 12.5815L16.5977 17.6792C16.7383 18.5933 15.7539 19.2964 14.9453 18.8745L10.375 16.4487L5.76953 18.8745C4.96094 19.2964 3.97656 18.5933 4.11719 17.6792L4.99609 12.5815L1.30469 8.96045C0.636719 8.29248 0.988281 7.16748 1.90234 7.02686L7.07031 6.28857L9.35547 1.61279C9.77734 0.769043 10.9727 0.804199 11.3594 1.61279L13.6797 6.28857L18.8125 7.02686ZM13.8906 11.9839L17.4414 8.53857L12.5547 7.83545L10.375 3.40576L8.16016 7.83545L3.27344 8.53857L6.82422 11.9839L5.98047 16.8354L10.375 14.5503L14.7344 16.8354L13.8906 11.9839Z" fill="#EB662B"/>
</svg>
